<svg xmlns="http://www.w3.org/2000/svg" viewBox="0 0 470.82 470.82"><defs><style>.cls-1{fill:none;}.cls-2,.cls-3{fill:#3f3e3e;}.cls-2{stroke:#3f3e3e;stroke-miterlimit:10;stroke-width:37px;}.cls-4{fill:#5296a6;}.cls-5{fill:#edc016;}.cls-6{fill:#dc911b;}.cls-7{fill:#47828f;}.cls-8{fill:#66b5cf;}.cls-9{fill:#fff;}.cls-10{fill:#ececec;}</style></defs><title>icon_1</title><g id="Layer_2" data-name="Layer 2"><g id="Layer_1-2" data-name="Layer 1"><rect class="cls-1" width="470.82" height="470.82"/><path class="cls-2" d="M428.34,311.89H134C121.26,295,108.1,261,102.78,246.37a11.67,11.67,0,0,0,.18-2v-6.33a26,26,0,0,0-7.81-18.7l.92-8.55a1.54,1.54,0,0,1,1.53-1.37H99.9a1.55,1.55,0,0,0,1.53-1.38,11.26,11.26,0,0,1,9.79-9.78,1.55,1.55,0,0,0,1.38-1.53v-6.93a10,10,0,0,0-10-10H46.86A7.17,7.17,0,0,0,39.69,187v9.74a1.55,1.55,0,0,0,1.38,1.53,11.26,11.26,0,0,1,9.79,9.78,1.55,1.55,0,0,0,1.53,1.38h2.81a1.54,1.54,0,0,1,1.53,1.4l.18,1.9a11.14,11.14,0,0,0-8.39,10.93L51,247.23c1.33,6.27,3.67,10.08,8.13,10.08l1.92-.1,1.41,15.21a10.19,10.19,0,0,0,10.19,10.19h4.67C78.74,293,80.68,304.71,83.24,316a18.87,18.87,0,0,0-7.1,14.76V334a48.63,48.63,0,0,0,48.63,48.63H428.34a18.91,18.91,0,0,0,18.91-18.91V330.8A18.91,18.91,0,0,0,428.34,311.89Z"/><path class="cls-2" d="M45,144.05A3.59,3.59,0,0,0,48.15,142L50.34,138a6.46,6.46,0,0,0,0-6.06L33.77,102.2,50.34,72.43a6.46,6.46,0,0,0,0-6.06l-2.2-3.94a3.5,3.5,0,0,0-6.39,0L21.3,99.18a6.46,6.46,0,0,0,0,6.06L41.76,142A3.6,3.6,0,0,0,45,144.05Z"/><path class="cls-2" d="M64.19,157.71,67.54,159a3.67,3.67,0,0,0,1.44.3,3.8,3.8,0,0,0,2.33-.83,5,5,0,0,0,1.76-2.92L93.57,58.42a5.47,5.47,0,0,0-.27-3.33,4.48,4.48,0,0,0-2.41-2.51l-3.44-1.29a3.66,3.66,0,0,0-3.76.53,5,5,0,0,0-1.77,2.93l-20.5,97.06a5.45,5.45,0,0,0,.27,3.35A4.51,4.51,0,0,0,64.19,157.71Z"/><path class="cls-2" d="M101.18,147a6.14,6.14,0,0,0,.75,3l2.19,3.94a3.5,3.5,0,0,0,6.39,0L131,117.23h0a6.46,6.46,0,0,0,0-6.06L110.52,74.43a3.5,3.5,0,0,0-6.39,0l-2.2,3.94a6.46,6.46,0,0,0,0,6.06l16.58,29.77L101.94,144A6.15,6.15,0,0,0,101.18,147Z"/><path class="cls-2" d="M144.82,155.33q7,1,9.59,2.32a7.17,7.17,0,0,1,3.58,4.07l41.65,112.75q1.16,3.49,3.49,3.49a4.33,4.33,0,0,0,1.94-.39L238,183.22l32.35,91.25q1.16,3.49,3.49,3.49a6.82,6.82,0,0,0,2.13-.39l40.88-114.88a8.73,8.73,0,0,1,4.36-5.13,30.32,30.32,0,0,1,8.82-2.23q2.33-.39,2.32-3.49a8.52,8.52,0,0,0-.19-1.55,8.23,8.23,0,0,1-.19-1.55q-3.1.39-8.43.68t-10,.29q-4.26,0-9.78-.29t-10.56-.68a12.69,12.69,0,0,0-.39,3.1q0,3.1,2.13,3.29a31.2,31.2,0,0,1,9,2.13,4.35,4.35,0,0,1,2.81,4.07,9.12,9.12,0,0,1-.19,1.74,18.27,18.27,0,0,1-.58,2.13l-27.51,78.65-32.74-94q-.78-2.51-2.71-2.52a6.4,6.4,0,0,0-1.94.39l-33.32,96.09-29.25-80a5.15,5.15,0,0,1-.58-2.32q0-2.91,3.1-4.36a27.93,27.93,0,0,1,8.72-2q2.13-.39,2.13-3.29a16.75,16.75,0,0,0-.39-3.1q-6,.39-12.88.68t-11.72.29q-2.33,0-5.33-.1l-6.2-.19q-3.2-.1-6.39-.29t-5.91-.39a16.22,16.22,0,0,0-.39,2.91Q142.69,154.75,144.82,155.33Z"/><path class="cls-2" d="M338.66,155.13q7.75,1,10.75,2.71a6,6,0,0,1,3,5.62v98.61q0,3.88-2.62,5.33t-10.36,3q-1.94.39-1.94,3.1a16.46,16.46,0,0,0,.39,3.1q5.62-.39,12-.68t11.43-.29q8.33,0,15.5.29t12.79.68a17.29,17.29,0,0,0,.39-3.29q0-2.91-2.32-3.29-8.53-1.16-12.79-3a6.41,6.41,0,0,1-4.26-6.3V221h16.85a45.38,45.38,0,0,0,17.73-3.29,42.36,42.36,0,0,0,13.17-8.43,36.11,36.11,0,0,0,8.14-11.53,31.16,31.16,0,0,0,2.81-12.59q0-15.69-10.46-25.57t-31.38-9.88H360.17q-5.43,0-11.53-.29t-11.53-.68a12,12,0,0,0-.39,2.91Q336.73,154.75,338.66,155.13Zm32,2.52H380.9A34.53,34.53,0,0,1,394.46,160a22.73,22.73,0,0,1,8.72,6.3,23.46,23.46,0,0,1,4.65,9.2,44.76,44.76,0,0,1,1.36,11.24q0,14.34-7.36,20.34t-20.92,6H370.63Z"/><rect class="cls-3" x="112.39" y="80.43" width="356.69" height="356.69" rx="62.61" ry="62.61"/><path class="cls-4" d="M94.8,311.34H428.09A18.91,18.91,0,0,1,447,330.26v32.92a18.91,18.91,0,0,1-18.91,18.91H124.52a48.63,48.63,0,0,1-48.63-48.63v-3.2A18.91,18.91,0,0,1,94.8,311.34Z"/><path class="cls-5" d="M47.91,136.28l-2.19,3.94q-.44.79-1,.79t-1-.79L23.24,103.47a4,4,0,0,1,0-3.63L43.69,63.1q.44-.79,1-.79t1,.79L47.91,67a4,4,0,0,1,0,3.63l-17.25,31,17.25,31a4,4,0,0,1,0,3.63Z"/><path class="cls-5" d="M44.7,143.51a3.6,3.6,0,0,1-3.2-2.07L21.05,104.69a6.46,6.46,0,0,1,0-6.06L41.51,61.88a3.5,3.5,0,0,1,6.39,0l2.2,3.94a6.46,6.46,0,0,1,0,6.06L33.52,101.66l16.58,29.77a6.46,6.46,0,0,1,0,6.06l-2.19,3.94A3.59,3.59,0,0,1,44.7,143.51Zm0-77.08L25.42,101.06a1.23,1.23,0,0,0-.12.6,1.21,1.21,0,0,0,.12.6L44.7,136.89l1-1.83a1.51,1.51,0,0,0,0-1.2L27.8,101.66,45.73,69.45a1.51,1.51,0,0,0,0-1.2Z"/><path class="cls-6" d="M90.88,57.35l-20.51,97.1a2.47,2.47,0,0,1-.85,1.47,1.19,1.19,0,0,1-1.29.19l-3.41-1.28a2,2,0,0,1-1.07-1.17,3,3,0,0,1-.14-1.84l20.51-97.1A2.45,2.45,0,0,1,85,53.25a1.18,1.18,0,0,1,1.29-.19l3.41,1.28a2,2,0,0,1,1.07,1.17A3,3,0,0,1,90.88,57.35Z"/><path class="cls-6" d="M68.72,158.72a3.67,3.67,0,0,1-1.44-.3l-3.35-1.26a4.51,4.51,0,0,1-2.5-2.55,5.45,5.45,0,0,1-.27-3.35L81.67,54.2a5,5,0,0,1,1.77-2.93,3.66,3.66,0,0,1,3.76-.53L90.64,52a4.48,4.48,0,0,1,2.41,2.51,5.47,5.47,0,0,1,.27,3.33L72.82,155a5,5,0,0,1-1.76,2.92A3.8,3.8,0,0,1,68.72,158.72ZM66,152.61l2,.75L88.44,56.8a.69.69,0,0,0,0-.25l-2-.76L66.05,152.33A.79.79,0,0,0,66,152.61Z"/><path class="cls-5" d="M128.54,115.47l-20.46,36.75q-.44.79-1,.79t-1-.79l-2.19-3.94a4,4,0,0,1,0-3.63l17.25-31-17.25-31a4,4,0,0,1,0-3.63l2.19-3.94q.44-.79,1-.79t1,.79l20.46,36.75a4,4,0,0,1,0,3.63Z"/><path class="cls-5" d="M107.08,155.51a3.59,3.59,0,0,1-3.2-2.07l-2.19-3.94a6.46,6.46,0,0,1,0-6.06l16.58-29.77L101.69,83.89a6.46,6.46,0,0,1,0-6.06l2.2-3.94a3.5,3.5,0,0,1,6.39,0l20.46,36.75a6.46,6.46,0,0,1,0,6.06h0l-20.46,36.75A3.6,3.6,0,0,1,107.08,155.51Zm0-77.08-1,1.83a1.52,1.52,0,0,0,0,1.2L124,113.66l-17.93,32.21a1.23,1.23,0,0,0-.12.6,1.22,1.22,0,0,0,.12.6l1,1.83,19.28-34.64a1.51,1.51,0,0,0,0-1.2Z"/><path class="cls-7" d="M112.35,367.37c14.21,1.1,36-40.8,25.86-50.82-17.68-17.46-38.14-77.63-38.14-77.63l-26.64,9.57S81.17,365,112.35,367.37Z"/><g id="_Group_" data-name="&lt;Group&gt;"><path class="cls-8" d="M54.94,208.89a1.54,1.54,0,0,1,1.53,1.4l5.71,61.6a10.19,10.19,0,0,0,10.19,10.19H79a10.19,10.19,0,0,0,10.19-10.19l6.6-61.62a1.54,1.54,0,0,1,1.53-1.37h2.31a1.55,1.55,0,0,0,1.53-1.38,11.26,11.26,0,0,1,9.79-9.78,1.55,1.55,0,0,0,1.38-1.53v-6.93a10,10,0,0,0-10-10H46.61a7.17,7.17,0,0,0-7.17,7.17v9.74a1.55,1.55,0,0,0,1.38,1.53,11.26,11.26,0,0,1,9.79,9.78,1.55,1.55,0,0,0,1.53,1.38Z"/></g><path class="cls-7" d="M102.7,237.52v6.33A11,11,0,0,1,91.9,255.07l-33,1.7c-4.46,0-6.8-3.81-8.13-10.08l-2.46-23.57a11,11,0,0,1,10.81-11.22H78C91.66,211.89,102.7,223.36,102.7,237.52Z"/><path class="cls-9" d="M172.64,326.69h1.95v38.45h18.86v1.7H172.64Z"/><path class="cls-9" d="M201,330.34a2,2,0,0,1-1.46-.58,2,2,0,0,1-.61-1.49,1.92,1.92,0,0,1,.61-1.55,2.32,2.32,0,0,1,2.92,0,1.93,1.93,0,0,1,.61,1.55,2,2,0,0,1-.61,1.49A2,2,0,0,1,201,330.34Zm-1,7.42h1.83v29.08H200Z"/><path class="cls-9" d="M213.15,322.92H215v13l-.12,5.84a28,28,0,0,1,5-3.35,11.41,11.41,0,0,1,5.38-1.4q5.9,0,8.79,4t2.89,10.8a19.8,19.8,0,0,1-1,6.63,14.93,14.93,0,0,1-2.8,4.93,12.08,12.08,0,0,1-4.11,3.07,11.86,11.86,0,0,1-5,1.06,12.07,12.07,0,0,1-4.44-.91,19.3,19.3,0,0,1-4.44-2.49H215l-.24,2.68h-1.58ZM215,361.86a17.1,17.1,0,0,0,5,3.1,12,12,0,0,0,4.17.91,9.23,9.23,0,0,0,4.35-1,10.61,10.61,0,0,0,3.44-2.89,13.47,13.47,0,0,0,2.25-4.44,19.17,19.17,0,0,0,.79-5.63,24.77,24.77,0,0,0-.52-5.2,11.87,11.87,0,0,0-1.7-4.17,8.41,8.41,0,0,0-3.07-2.77,9.6,9.6,0,0,0-4.56-1,10.52,10.52,0,0,0-4.84,1.31,25.21,25.21,0,0,0-5.26,3.8Z"/><path class="cls-9" d="M245.64,337.77h1.58l.24,5.48h.12a15.53,15.53,0,0,1,3.53-4.44,7.1,7.1,0,0,1,4.75-1.76,7.82,7.82,0,0,1,1.4.12,5.26,5.26,0,0,1,1.4.49l-.49,1.7A6.35,6.35,0,0,0,257,339a7.63,7.63,0,0,0-1.34-.09,6.87,6.87,0,0,0-4.2,1.73,14.73,14.73,0,0,0-4,6.05v20.2h-1.83Z"/><path class="cls-9" d="M260.73,352.37A18.2,18.2,0,0,1,261.8,346a15.4,15.4,0,0,1,2.8-4.84,12.23,12.23,0,0,1,4-3,10.84,10.84,0,0,1,4.68-1.06,10,10,0,0,1,8,3.44q2.95,3.44,3,9.95v.94a4.66,4.66,0,0,1-.12,1H262.68a16.93,16.93,0,0,0,.82,5.38,13.39,13.39,0,0,0,2.31,4.29,10.34,10.34,0,0,0,3.59,2.83,10.79,10.79,0,0,0,4.71,1,12.59,12.59,0,0,0,4.44-.73,14.6,14.6,0,0,0,3.59-1.95l.85,1.58a27,27,0,0,1-3.68,1.92,13.57,13.57,0,0,1-5.32.88,12.87,12.87,0,0,1-5.14-1,12.33,12.33,0,0,1-4.23-3,14.19,14.19,0,0,1-2.86-4.78A18.34,18.34,0,0,1,260.73,352.37Zm21.66-1.58q0-6.08-2.49-9.07a8.22,8.22,0,0,0-6.63-3,8.83,8.83,0,0,0-3.77.85,10.36,10.36,0,0,0-3.25,2.4,13,13,0,0,0-2.37,3.77,16.39,16.39,0,0,0-1.19,5Z"/><path class="cls-9" d="M304,326.33h21.42V328H306v16.91h16.43v1.7H306v19.83H304Z"/><path class="cls-9" d="M327.82,352a19.07,19.07,0,0,1,1-6.51,14.3,14.3,0,0,1,2.8-4.81,12.2,12.2,0,0,1,18.13,0,14.33,14.33,0,0,1,2.8,4.81,19.08,19.08,0,0,1,1,6.51,18.61,18.61,0,0,1-1,6.42,14.36,14.36,0,0,1-2.8,4.78,12.2,12.2,0,0,1-18.13,0,14.33,14.33,0,0,1-2.8-4.78A18.6,18.6,0,0,1,327.82,352Zm1.95,0a16.76,16.76,0,0,0,.85,5.51,13.83,13.83,0,0,0,2.31,4.26,10.13,10.13,0,0,0,3.47,2.77,10.07,10.07,0,0,0,8.64,0,10.13,10.13,0,0,0,3.47-2.77,13.85,13.85,0,0,0,2.31-4.26,16.79,16.79,0,0,0,.85-5.51,17.14,17.14,0,0,0-.85-5.51,13.75,13.75,0,0,0-2.31-4.32,10.48,10.48,0,0,0-3.47-2.8,9.79,9.79,0,0,0-8.64,0,10.48,10.48,0,0,0-3.47,2.8,13.73,13.73,0,0,0-2.31,4.32A17.12,17.12,0,0,0,329.77,352Z"/><path class="cls-9" d="M361.34,337.4h1.58l.24,5.48h.12a15.53,15.53,0,0,1,3.53-4.44,7.1,7.1,0,0,1,4.75-1.76,7.82,7.82,0,0,1,1.4.12,5.26,5.26,0,0,1,1.4.49l-.49,1.7a6.35,6.35,0,0,0-1.22-.4,7.63,7.63,0,0,0-1.34-.09,6.87,6.87,0,0,0-4.2,1.73,14.73,14.73,0,0,0-4,6.05v20.2h-1.83Z"/><path class="cls-9" d="M378.56,337.4h1.58l.24,4.62h.12a19.72,19.72,0,0,1,4.44-3.83,9,9,0,0,1,4.81-1.52,7.89,7.89,0,0,1,5.45,1.67,8.84,8.84,0,0,1,2.59,4.41,26,26,0,0,1,5-4.47,9,9,0,0,1,5-1.61q4.32,0,6.48,2.68t2.16,8.4v18.74h-1.83V348q0-4.87-1.67-7.24a6,6,0,0,0-5.26-2.37,8.13,8.13,0,0,0-4.44,1.46,24.08,24.08,0,0,0-4.81,4.38v22.27h-1.82V348q0-4.87-1.67-7.24a6,6,0,0,0-5.26-2.37q-4.14,0-9.25,5.84v22.27h-1.83Z"/><path class="cls-10" d="M240.85,147.23a6.4,6.4,0,0,1,1.94-.39q1.93,0,2.71,2.52l32.74,94,27.51-78.65a18.25,18.25,0,0,0,.58-2.13,9.12,9.12,0,0,0,.19-1.74,4.35,4.35,0,0,0-2.81-4.07,31.2,31.2,0,0,0-9-2.13q-2.13-.19-2.13-3.29a12.69,12.69,0,0,1,.39-3.1q5,.39,10.56.68t9.78.29q4.65,0,10-.29t8.43-.68a8.23,8.23,0,0,0,.19,1.55,8.52,8.52,0,0,1,.19,1.55q0,3.1-2.32,3.49A30.32,30.32,0,0,0,321,157a8.73,8.73,0,0,0-4.36,5.13L275.72,277a6.82,6.82,0,0,1-2.13.39q-2.32,0-3.49-3.49l-32.35-91.25L204.82,277a4.33,4.33,0,0,1-1.94.39q-2.32,0-3.49-3.49L157.74,161.18a7.17,7.17,0,0,0-3.58-4.07q-2.62-1.35-9.59-2.32-2.13-.58-2.13-3.68a16.21,16.21,0,0,1,.39-2.91q2.71.2,5.91.39t6.39.29l6.2.19q3,.1,5.33.1,4.84,0,11.72-.29t12.88-.68a16.76,16.76,0,0,1,.39,3.1q0,2.91-2.13,3.29a27.93,27.93,0,0,0-8.72,2q-3.1,1.45-3.1,4.36a5.15,5.15,0,0,0,.58,2.32l29.25,80Z"/><path class="cls-10" d="M370.38,220.46v39.71a6.41,6.41,0,0,0,4.26,6.3q4.26,1.84,12.79,3,2.32.39,2.32,3.29a17.29,17.29,0,0,1-.39,3.29q-5.62-.39-12.79-.68t-15.5-.29q-5,0-11.43.29t-12,.68a16.46,16.46,0,0,1-.39-3.1q0-2.71,1.94-3.1,7.75-1.55,10.36-3t2.62-5.33V162.92a6,6,0,0,0-3-5.62q-3-1.74-10.75-2.71-1.94-.39-1.94-3.49a12,12,0,0,1,.39-2.91q5.42.39,11.53.68t11.53.29h27.32q20.92,0,31.38,9.88t10.46,25.57a31.16,31.16,0,0,1-2.81,12.59,36.11,36.11,0,0,1-8.14,11.53A42.36,42.36,0,0,1,405,217.16a45.38,45.38,0,0,1-17.73,3.29Zm10.27-7.94q13.56,0,20.92-6t7.36-20.34a44.76,44.76,0,0,0-1.36-11.24,23.46,23.46,0,0,0-4.65-9.2,22.73,22.73,0,0,0-8.72-6.3,34.53,34.53,0,0,0-13.56-2.32H370.38v55.41Z"/></g></g></svg>